<svg xmlns="http://www.w3.org/2000/svg" xmlns:xlink="http://www.w3.org/1999/xlink" width="56" height="48">
<g transform="matrix(4 0 0 4 0 0)">
    <path d="M13.5 0.515626L9.925 0.515626C 9.15781 0.515626 8.40781 0.735938 7.7625003 1.1515601L7.7625003 1.1515601L7.0000005 1.64063L6.2375007 1.1515601C 5.5928307 0.73601806 4.8419905 0.51521504 4.075001 0.5156261L4.075001 0.5156261L0.5000007 0.5156261C 0.22343773 0.5156261 7.1525574E-07 0.7390631 7.1525574E-07 1.01563L7.1525574E-07 1.01563L7.1525574E-07 9.89062C 7.1525574E-07 10.1672 0.22343771 10.3906 0.5000007 10.3906L0.5000007 10.3906L4.075001 10.3906C 4.8421907 10.3906 5.5921907 10.6109 6.2375007 11.0266L6.2375007 11.0266L6.9312506 11.4734C 6.9515605 11.4859 6.9750004 11.4937 6.9984407 11.4937C 7.0218706 11.4937 7.045311 11.4875 7.065631 11.4734L7.065631 11.4734L7.759371 11.0266C 8.406251 10.6109 9.157811 10.3906 9.925001 10.3906L9.925001 10.3906L13.500001 10.3906C 13.776601 10.3906 14.000001 10.1672 14.000001 9.89062L14.000001 9.89062L14.000001 1.0156298C 14.000001 0.7390628 13.776601 0.5156258 13.500001 0.5156258L13.500001 0.5156258L13.5 0.515626zM4.075 9.26562L1.1249998 9.26562L1.1249998 1.6406302L4.075 1.6406302C 4.62812 1.6406302 5.16562 1.7984402 5.6296897 2.0968802L5.6296897 2.0968802L6.3921895 2.5859401L6.4999995 2.65625L6.4999995 9.875C 5.7562494 9.475 4.924999 9.26562 4.075 9.26562zM12.875 9.26562L9.925 9.26562C 9.075 9.26562 8.243751 9.475 7.5 9.875L7.5 9.875L7.5 2.65625L7.60781 2.58594L8.37031 2.09688C 8.83438 1.79844 9.37187 1.64063 9.925 1.64063L9.925 1.64063L12.875 1.64063zM5.20156 3.6406302L2.29844 3.6406302C 2.2375 3.6406302 2.1875 3.6937501 2.1875 3.7578104L2.1875 3.7578104L2.1875 4.4609404C 2.1875 4.5250006 2.2375 4.57812 2.29844 4.57812L2.29844 4.57812L5.2 4.57812C 5.2609396 4.57812 5.31094 4.525 5.31094 4.4609404L5.31094 4.4609404L5.31094 3.7578104C 5.3125 3.6937504 5.2625 3.6406302 5.20156 3.6406302zM8.6875 3.7578104L8.6875 4.4609404C 8.6875 4.5250006 8.7375 4.57812 8.79844 4.57812L8.79844 4.57812L11.7 4.57812C 11.7609 4.57812 11.8109 4.525 11.8109 4.4609404L11.8109 4.4609404L11.8109 3.7578104C 11.8109 3.6937504 11.7609 3.6406302 11.7 3.6406302L11.7 3.6406302L8.79844 3.6406302C 8.7375 3.6406302 8.6875 3.6937501 8.6875 3.7578104zM5.20156 5.82812L2.29844 5.82812C 2.2375 5.82812 2.1875 5.8812504 2.1875 5.94531L2.1875 5.94531L2.1875 6.6484404C 2.1875 6.7125006 2.2375 6.76562 2.29844 6.76562L2.29844 6.76562L5.2 6.76562C 5.2609396 6.76562 5.31094 6.7125 5.31094 6.6484404L5.31094 6.6484404L5.31094 5.9453106C 5.3125 5.8812504 5.2625 5.8281207 5.20156 5.8281207zM11.7016 5.82812L8.79844 5.82812C 8.7375 5.82812 8.6875 5.8812504 8.6875 5.94531L8.6875 5.94531L8.6875 6.6484404C 8.6875 6.7125006 8.7375 6.76562 8.79844 6.76562L8.79844 6.76562L11.7 6.76562C 11.7609 6.76562 11.8109 6.7125 11.8109 6.6484404L11.8109 6.6484404L11.8109 5.9453106C 11.8125 5.8812504 11.7625 5.8281207 11.7016 5.8281207z" stroke="none" fill="#105ed5" fill-rule="nonzero" />
</g>
</svg>