<?xml version="1.0" encoding="utf-8"?>
<!-- Uploaded to: SVG Repo, www.svgrepo.com, Generator: SVG Repo Mixer Tools -->
<svg fill="#105ed5" width="800px" height="800px" viewBox="0 0 32 32" version="1.1" xmlns="http://www.w3.org/2000/svg">
<title>save</title>
<path d="M9.467 3.106h3.030c0.266 0 0.482 0.278 0.482 0.621v4.374c0 0.343-0.216 0.621-0.482 0.621h-3.030c-0.266 0-0.482-0.278-0.482-0.621v-4.374c0-0.343 0.216-0.621 0.482-0.621zM21.964 14.524l7.987 7.987h-3.993v7.987h-7.987v-7.987h-3.993l7.987-7.987zM17.422 24.768h-10.309c-0.276 0-0.499-0.223-0.499-0.499v-11.481c0-0.276 0.223-0.499 0.499-0.499h17.721c0.276 0 0.499 0.223 0.499 0.499v4.402l3.12 3.12v-13.262c0-0.276-4.216-4.493-4.493-4.493h-4.741c0.169 0.069 0.287 0.223 0.287 0.404v6.181c0 0.244-0.216 0.442-0.482 0.442h-10.594c-0.266 0-0.482-0.198-0.482-0.442v-6.181c0-0.18 0.118-0.335 0.287-0.404h-4.242c-0.277 0-0.499 0.223-0.499 0.499v23.961c0 0.277 0.223 0.499 0.499 0.499h13.429v-2.746zM26.506 22.903v4.611h1.449c0.277 0 0.499-0.223 0.499-0.499v-4.111l-1.948 0z"></path>
</svg>