<svg width="582" height="64" viewBox="0 0 582 64" fill="none" xmlns="http://www.w3.org/2000/svg">
<g clip-path="url(#clip0_1551_28859)">
<path d="M570.527 2.86921H568.803V1.64227H573.94V2.86921H572.227V6.96809H570.53V2.86921H570.527Z" fill="#232D54"/>
<path d="M579.412 5.17278C579.412 4.32841 579.428 3.30369 579.466 2.68066H579.45C579.198 3.71084 578.865 5.08534 578.343 6.96809H576.946C576.536 5.2165 576.195 3.74637 575.94 2.66973H575.927C575.959 3.29002 576.018 4.31748 576.018 5.2329V6.96809H574.501V1.64227H576.932C577.27 2.84188 577.6 4.15079 577.747 5.04708H577.758C577.959 4.10434 578.292 2.86101 578.643 1.64227H581.067V6.96809H579.41V5.17278H579.412Z" fill="#232D54"/>
<path d="M98.8433 16.9983H114.587V25.7398H115.056C116.7 19.2718 120.461 16.3998 125.279 16.3998C126.69 16.3998 128.1 16.6403 129.392 17.0283V31.1285C127.776 30.5601 125.076 30.2896 123.4 30.2896C118.611 30.2896 115.059 33.7627 115.059 39.0312V62.9823H98.8433V16.9983V16.9983Z" fill="#232D54"/>
<path d="M162.697 16.999H178.913V62.983H163.521V54.2415H163.051C161.083 60.1084 155.914 63.5815 149.187 63.5815C139.698 63.5815 133.473 56.3975 133.443 46.3361V16.999H149.659V42.8657C149.688 47.4155 152.037 50.1699 156.121 50.1699C160.145 50.1699 162.73 47.4155 162.7 42.8657V16.999H162.697Z" fill="#232D54"/>
<path d="M184.49 39.9907C184.49 23.3465 193.185 16.4002 202.116 16.4002C208.813 16.4002 213.044 20.3515 214.806 25.0215H215.042V1.66882H231.257V62.9827H215.16V55.438H214.808C212.929 60.108 208.58 63.5811 202.236 63.5811C192.595 63.5811 184.49 55.9162 184.49 39.9907ZM215.39 39.9907C215.39 33.1647 212.688 29.0931 208.223 29.0931C203.759 29.0931 201.175 33.1647 201.175 39.9907C201.175 46.8167 203.759 50.8882 208.223 50.8882C212.688 50.8882 215.39 46.6964 215.39 39.9907Z" fill="#232D54"/>
<path d="M236.595 39.9907C236.595 23.3465 245.29 16.4002 254.221 16.4002C260.919 16.4002 265.15 20.3515 266.911 25.0215H267.147V1.66882H283.363V62.9827H267.265V55.438H266.914C265.034 60.108 260.685 63.5811 254.342 63.5811C244.7 63.5811 236.595 55.9162 236.595 39.9907ZM267.496 39.9907C267.496 33.1647 264.793 29.0931 260.329 29.0931C255.865 29.0931 253.28 33.1647 253.28 39.9907C253.28 46.8167 255.865 50.8882 260.329 50.8882C264.793 50.8882 267.496 46.6964 267.496 39.9907Z" fill="#232D54"/>
<path d="M288.465 40.1105C288.465 25.8601 297.396 16.3998 311.378 16.3998C325.006 16.3998 333.819 25.3518 333.819 39.9903V43.8214H304.444V44.5401C304.444 48.9696 307.265 52.205 312.083 52.205C315.402 52.205 318.075 50.7376 319.017 48.1334H333.822C332.294 57.7139 324.245 63.8212 311.732 63.8212C297.278 63.8212 288.465 54.9895 288.465 40.1105ZM318.896 34.7219C318.807 30.7705 315.754 28.0161 311.729 28.0161C307.764 28.0161 304.533 30.7405 304.444 34.7219H318.896Z" fill="#232D54"/>
<path d="M339.16 16.9983H354.904V25.7398H355.373C357.017 19.2718 360.778 16.3998 365.596 16.3998C367.006 16.3998 368.417 16.6403 369.709 17.0283V31.1285C368.092 30.5601 365.392 30.2896 363.717 30.2896C358.928 30.2896 355.376 33.7627 355.376 39.0312V62.9823H339.16V16.9983V16.9983Z" fill="#232D54"/>
<path d="M401.4 29.6612C400.373 26.5789 397.845 23.4938 392.383 23.4938C387.391 23.4938 383.629 26.0077 383.659 29.541C383.629 32.6534 385.774 34.3613 390.737 35.5581L397.904 37.236C406.189 39.1816 410.24 43.193 410.24 49.6911C410.24 58.0146 402.69 63.9115 391.794 63.9115C381.659 63.9115 375.02 59.3317 373.551 51.1886L382.04 49.8715C383.096 54.3912 386.474 56.6975 391.732 56.6975C397.488 56.6975 401.22 53.913 401.22 50.3497C401.22 47.475 399.193 45.4993 394.847 44.5128L387.209 42.8077C378.75 40.8922 374.873 36.5501 374.873 30.0246C374.873 21.8815 382.099 16.4027 392.292 16.4027C402.044 16.4027 407.537 21.0727 409.358 28.2293L401.4 29.6612Z" fill="#232D54"/>
<path d="M439.698 24.183H430.445V49.4814C430.445 54.6596 433 55.6188 435.85 55.6188C437.261 55.6188 438.347 55.3482 438.934 55.2307L440.521 62.6251C439.494 63.0131 437.612 63.5542 434.823 63.5843C427.89 63.7345 421.635 59.693 421.664 51.3395V24.183H415.055V16.9991H421.664V5.98125H430.448V16.9991H439.7V24.183H439.698Z" fill="#232D54"/>
<path d="M446.036 49.9889C446.036 39.5394 454.79 37.2659 463.337 36.2467C471.445 35.2875 474.735 35.3476 474.735 32.0849V31.8745C474.735 26.6662 471.826 23.6412 466.158 23.6412C460.254 23.6412 456.964 26.7837 455.672 30.0491L447.417 28.1336C450.355 19.75 457.873 16.3971 466.04 16.3971C473.207 16.3971 483.548 19.0614 483.548 32.4429V62.9796H474.971V56.6919H474.62C472.944 60.135 468.745 63.9961 461.284 63.9961C452.704 63.9988 446.036 59.031 446.036 49.9889ZM474.764 46.3955V40.4685C473.502 41.7556 466.745 42.5343 463.895 42.9224C458.814 43.611 454.642 45.3161 454.642 50.1064C454.642 54.5359 458.227 56.8121 463.19 56.8121C470.504 56.8149 474.764 51.8443 474.764 46.3955Z" fill="#232D54"/>
<path d="M491.972 40.198C491.972 26.1579 500.198 16.3971 512.915 16.3971C523.167 16.3971 530.597 22.5646 531.538 31.8445H522.99C522.049 27.5324 518.644 23.9418 513.062 23.9418C505.718 23.9418 500.841 30.1393 500.841 39.9876C500.841 50.0162 505.63 56.3339 513.062 56.3339C518.084 56.3339 521.875 53.3991 522.99 48.4313H531.538C530.567 57.3833 523.666 63.9087 513.003 63.9087C499.903 63.9114 491.972 54.0604 491.972 40.198Z" fill="#232D54"/>
<path d="M539.731 1.66882H548.515V36.4574H549.279L567.256 16.9986H577.772L559.499 36.728L579.005 62.9827H568.224L552.89 42.2068L548.515 46.6664V62.9827H539.731V1.66882Z" fill="#232D54"/>
<path d="M47.9952 32.611V16.3056H31.9968C31.9968 25.3095 39.1582 32.611 47.9952 32.611Z" fill="#232D54"/>
<path d="M0 62.9833H23.6719C37.1044 62.9833 47.9953 51.8835 47.9953 38.1933H0V62.9833Z" fill="#232D54"/>
<path d="M31.9968 0C31.9968 9.00389 39.1582 16.3054 47.9952 16.3054V0H31.9968Z" fill="#232D54"/>
<path d="M15.9985 0C15.9985 9.00389 23.1599 16.3054 31.997 16.3054H15.9985C15.9985 25.3093 23.1599 32.6107 31.997 32.6107V16.3054V0H15.9985Z" fill="#232D54"/>
<path d="M15.9984 32.611V16.3056H0C0 25.3095 7.16135 32.611 15.9984 32.611Z" fill="#232D54"/>
</g>
<defs>
<clipPath id="clip0_1551_28859">
<rect width="581.069" height="64" fill="white"/>
</clipPath>
</defs>
</svg>
